<svg width="42" height="42" viewBox="0 0 42 42" fill="none" xmlns="http://www.w3.org/2000/svg">
<path d="M38.374 20.3122C38.0205 19.4582 37.2628 19.2535 36.75 19.2045V14C36.75 12.0697 35.1803 10.5 33.25 10.5H22.75V8.0675C23.2838 7.588 23.625 6.8985 23.625 6.125C23.625 5.42881 23.3485 4.76113 22.8562 4.26884C22.3639 3.77656 21.6962 3.5 21 3.5C20.3039 3.5 19.6362 3.77656 19.1439 4.26884C18.6516 4.76113 18.375 5.42881 18.375 6.125C18.375 6.8985 18.7163 7.588 19.25 8.0675V10.5H8.75004C6.81979 10.5 5.25004 12.0697 5.25004 14V19.2447L5.10654 19.2552C4.6655 19.2871 4.25285 19.4847 3.95157 19.8084C3.6503 20.1321 3.48272 20.5578 3.48254 21V24.5C3.48254 24.9641 3.66692 25.4092 3.99511 25.7374C4.3233 26.0656 4.76842 26.25 5.23254 26.25H5.25004V35C5.25004 36.9302 6.81979 38.5 8.75004 38.5H33.25C35.1803 38.5 36.75 36.9302 36.75 35V26.25C37.2142 26.25 37.6593 26.0656 37.9875 25.7374C38.3157 25.4092 38.5 24.9641 38.5 24.5V21.1085C38.5202 20.8369 38.4771 20.5643 38.374 20.3122ZM8.75004 35V14H33.25L33.2518 20.993L33.25 21V24.5L33.2518 24.5087L33.2535 35H8.75004Z" fill="white"/>
<path d="M14.875 24.5C16.3247 24.5 17.5 22.933 17.5 21C17.5 19.067 16.3247 17.5 14.875 17.5C13.4253 17.5 12.25 19.067 12.25 21C12.25 22.933 13.4253 24.5 14.875 24.5Z" fill="white"/>
<path d="M27.125 24.5C28.5747 24.5 29.75 22.933 29.75 21C29.75 19.067 28.5747 17.5 27.125 17.5C25.6753 17.5 24.5 19.067 24.5 21C24.5 22.933 25.6753 24.5 27.125 24.5Z" fill="white"/>
<path d="M14 25H28V28.5H14V25Z" fill="white"/>
</svg>
