<svg width="33" height="36" viewBox="0 0 33 36" fill="none" xmlns="http://www.w3.org/2000/svg">
<path d="M30.8692 25.8448C30.5327 25.4565 29.3449 24.3086 27.1612 22.79C24.9614 21.258 23.3391 20.3028 22.8738 20.0801C22.8328 20.0604 22.7876 20.0531 22.7431 20.0592C22.6985 20.0652 22.6564 20.0843 22.6211 20.1143C21.8715 20.7476 20.6095 21.9109 20.5419 21.9737C20.1049 22.3794 20.1049 22.3794 19.7471 22.253C19.1181 22.0296 17.1639 20.9054 15.461 19.0565C13.7582 17.2075 12.667 15.0381 12.4607 14.3573C12.3428 13.9691 12.3428 13.9691 12.7185 13.4957C12.7765 13.4223 13.851 12.0552 14.4356 11.2438C14.4633 11.2056 14.4809 11.16 14.4864 11.1117C14.492 11.0635 14.4853 11.0145 14.4671 10.9701C14.2615 10.4653 13.3798 8.70851 11.9657 6.32541C10.5619 3.96047 9.50361 2.67361 9.14525 2.30912C9.11237 2.27551 9.07172 2.25212 9.0276 2.24143C8.98347 2.23074 8.9375 2.23314 8.89453 2.24838C7.64187 2.71474 6.43325 3.30979 5.28515 4.0254C4.17683 4.72338 3.12755 5.52599 2.14951 6.42387C2.11537 6.45531 2.08977 6.49623 2.07546 6.54223C2.06116 6.58824 2.05868 6.63759 2.0683 6.68501C2.20301 7.3651 2.84689 10.2041 4.84494 14.1366C6.88359 18.1501 8.2964 20.2065 11.2903 23.4386C14.2841 26.6708 16.2422 28.2935 19.9508 30.502C23.5808 32.6666 26.2028 33.3648 26.8293 33.5094C26.8731 33.5197 26.9188 33.517 26.9613 33.5015C27.0039 33.486 27.0417 33.4583 27.071 33.4214C27.8996 32.3619 28.6403 31.2252 29.2843 30.0244C29.9447 28.7806 30.494 27.4713 30.9246 26.1143C30.9384 26.0681 30.9405 26.0187 30.9308 25.9714C30.921 25.924 30.8998 25.8803 30.8692 25.8448Z" fill="#113650"/>
</svg>
