<svg width="48" height="49" viewBox="0 0 48 49" fill="none" xmlns="http://www.w3.org/2000/svg">
<path d="M24.0069 0C27.6323 0.00209525 31.2101 0.825255 34.4719 2.40771C37.7337 3.99016 40.5947 6.29081 42.8403 9.137C45.0859 11.9832 46.6576 15.301 47.4377 18.8415C48.2178 22.3819 48.1858 26.0531 47.3443 29.5795C46.5028 33.1058 44.8735 36.3958 42.5788 39.2025C40.284 42.0092 37.3834 44.2597 34.0946 45.7852C30.8058 47.3107 27.2142 48.0715 23.5893 48.0105C19.9644 47.9495 16.4005 47.0683 13.1648 45.4331L12.8017 45.2381L1.86354 47.9689C1.65303 48.0218 1.43354 48.0284 1.22023 47.9883C1.00691 47.9482 0.804836 47.8622 0.627956 47.7364C0.451077 47.6106 0.3036 47.4479 0.195704 47.2596C0.0878079 47.0712 0.0220607 46.8617 0.00300065 46.6455V46.3994L0.0450133 46.1503L2.7758 35.2152L2.58675 34.8551C1.21691 32.1504 0.371775 29.2108 0.096028 26.1916L0.021006 25.0452L0 24.0069C0 17.6399 2.5293 11.5336 7.03147 7.03147C11.5336 2.5293 17.6399 0 24.0069 0ZM24.0069 3.00087C20.3413 3.00027 16.7393 3.95894 13.5588 5.78159C10.3784 7.60425 7.73031 10.2274 5.87769 13.3905C4.02506 16.5536 3.03241 20.1463 2.99837 23.8119C2.96433 27.4774 3.89008 31.088 5.68364 34.2849C5.82289 34.5335 5.88846 34.8166 5.8727 35.1011L5.83069 35.3832L3.56203 44.4488L12.6367 42.1862C12.8211 42.1406 13.0126 42.1304 13.2008 42.1562L13.4739 42.2192L13.735 42.3362C16.5358 43.9042 19.6587 44.8095 22.8639 44.9825C26.0691 45.1555 29.2714 44.5916 32.2247 43.3343C35.1781 42.0769 37.804 40.1594 39.9008 37.7291C41.9976 35.2987 43.5096 32.4202 44.3206 29.3144C45.1317 26.2087 45.2202 22.9584 44.5793 19.8132C43.9385 16.6679 42.5854 13.7114 40.6239 11.1705C38.6624 8.62971 36.1447 6.57219 33.2642 5.15597C30.3836 3.73975 27.2168 3.00252 24.0069 3.00087ZM25.5074 27.0078C25.8823 27.0071 26.2439 27.1468 26.521 27.3994C26.7981 27.6521 26.9706 27.9993 27.0044 28.3727C27.0383 28.7461 26.9312 29.1186 26.7041 29.417C26.477 29.7154 26.1464 29.9179 25.7775 29.9847L25.5074 30.0087H16.5048C16.1298 30.0094 15.7682 29.8696 15.4911 29.617C15.214 29.3644 15.0416 29.0172 15.0077 28.6438C14.9738 28.2704 15.081 27.8978 15.3081 27.5995C15.5352 27.3011 15.8657 27.0986 16.2347 27.0318L16.5048 27.0078H25.5074ZM31.5091 18.0052C31.8841 18.0045 32.2457 18.1442 32.5227 18.3968C32.7998 18.6495 32.9723 18.9967 33.0062 19.3701C33.04 19.7435 32.9329 20.116 32.7058 20.4144C32.4787 20.7127 32.1481 20.9153 31.7792 20.9821L31.5091 21.0061H16.5048C16.1298 21.0068 15.7682 20.867 15.4911 20.6144C15.214 20.3618 15.0416 20.0146 15.0077 19.6412C14.9738 19.2678 15.081 18.8952 15.3081 18.5969C15.5352 18.2985 15.8657 18.096 16.2347 18.0292L16.5048 18.0052H31.5091Z" fill="white"/>
</svg>
