<svg width="32" height="32" viewBox="0 0 32 32" fill="none" xmlns="http://www.w3.org/2000/svg">
<g clip-path="url(#clip0_59_483)">
<path fill-rule="evenodd" clip-rule="evenodd" d="M16 18.8293L23.0707 25.9C23.4459 26.2752 23.9547 26.486 24.4853 26.486C25.0159 26.486 25.5248 26.2752 25.9 25.9C26.2752 25.5248 26.486 25.0159 26.486 24.4853C26.486 23.9547 26.2752 23.4459 25.9 23.0707L18.8267 16L25.8987 8.92933C26.0844 8.74355 26.2316 8.52302 26.3321 8.28032C26.4326 8.03763 26.4842 7.77752 26.4842 7.51486C26.4841 7.25219 26.4323 6.99211 26.3317 6.74946C26.2312 6.50681 26.0838 6.28635 25.898 6.10066C25.7122 5.91497 25.4917 5.76769 25.249 5.66723C25.0063 5.56677 24.7462 5.5151 24.4835 5.51516C24.2209 5.51522 23.9608 5.56702 23.7181 5.66759C23.4755 5.76817 23.255 5.91555 23.0693 6.10133L16 13.172L8.92933 6.10133C8.74493 5.91022 8.52431 5.75776 8.28035 5.65282C8.0364 5.54789 7.77398 5.4926 7.50843 5.49017C7.24287 5.48773 6.97949 5.53821 6.73365 5.63866C6.48781 5.7391 6.26444 5.88751 6.07657 6.0752C5.88869 6.2629 5.74008 6.48613 5.6394 6.73188C5.53873 6.97762 5.488 7.24095 5.49018 7.50651C5.49236 7.77207 5.54741 8.03453 5.65211 8.27859C5.75681 8.52265 5.90907 8.74341 6.1 8.92799L13.1733 16L6.10133 23.072C5.9104 23.2566 5.75815 23.4773 5.65344 23.7214C5.54874 23.9655 5.49369 24.2279 5.49151 24.4935C5.48933 24.759 5.54006 25.0224 5.64074 25.2681C5.74141 25.5139 5.89003 25.7371 6.0779 25.9248C6.26577 26.1125 6.48914 26.2609 6.73498 26.3613C6.98082 26.4618 7.2442 26.5123 7.50976 26.5098C7.77532 26.5074 8.03773 26.4521 8.28169 26.3472C8.52565 26.2422 8.74626 26.0898 8.93067 25.8987L16 18.8293Z" fill="url(#paint0_linear_59_483)"/>
</g>
<defs>
<linearGradient id="paint0_linear_59_483" x1="15.988" y1="5.49008" x2="15.988" y2="26.5099" gradientUnits="userSpaceOnUse">
<stop stop-color="#FFB840"/>
<stop offset="1" stop-color="#113650"/>
</linearGradient>
<clipPath id="clip0_59_483">
<rect width="32" height="32" fill="white"/>
</clipPath>
</defs>
</svg>
