<svg width="46" height="60" viewBox="0 0 46 60" fill="none" xmlns="http://www.w3.org/2000/svg">
<path d="M5.68856 59.218C4.17986 59.218 2.73295 58.6186 1.66614 57.5518C0.599328 56.485 0 55.0381 0 53.5294V45.4029C9.63487e-09 44.7563 0.256855 44.1362 0.71406 43.679C1.17126 43.2218 1.79137 42.9649 2.43795 42.9649C3.08454 42.9649 3.70464 43.2218 4.16185 43.679C4.61905 44.1362 4.87591 44.7563 4.87591 45.4029V53.5294C4.87591 53.978 5.23997 54.3421 5.68856 54.3421H39.8199C40.0354 54.3421 40.2421 54.2564 40.3945 54.104C40.5469 53.9516 40.6326 53.7449 40.6326 53.5294V45.4029C40.6326 44.7563 40.8894 44.1362 41.3466 43.679C41.8038 43.2218 42.4239 42.9649 43.0705 42.9649C43.7171 42.9649 44.3372 43.2218 44.7944 43.679C45.2516 44.1362 45.5085 44.7563 45.5085 45.4029V53.5294C45.5085 55.0381 44.9091 56.485 43.8423 57.5518C42.7755 58.6186 41.3286 59.218 39.8199 59.218H5.68856Z" fill="#FFB840"/>
<ellipse cx="22.5" cy="18" rx="16.5" ry="18" fill="#FFB840"/>
<path d="M20.156 43.6539V27.3311C20.156 26.7604 19.7164 4.58293 20.156 4.17937C20.5956 3.77581 21.8783 4.17936 22.5 4.17936C23.1217 4.17936 24.4044 3.77581 24.844 4.17937C25.2836 4.58293 24.844 26.7604 24.844 27.3311V43.6539L31.001 38.0045C31.2185 37.8048 31.4768 37.6464 31.761 37.5383C32.0452 37.4302 32.3498 37.3746 32.6574 37.3746C32.9651 37.3746 33.2697 37.4302 33.5539 37.5383C33.8381 37.6464 34.0964 37.8048 34.3139 38.0045C34.5314 38.2042 34.704 38.4413 34.8217 38.7022C34.9394 38.9631 35 39.2427 35 39.5251C35 39.8076 34.9394 40.0872 34.8217 40.3481C34.704 40.609 34.5314 40.8461 34.3139 41.0458L24.1564 50.3707C23.7169 50.7736 23.1212 51 22.5 51C21.8788 51 21.2831 50.7736 20.8436 50.3707L10.6861 41.0458C10.4686 40.8461 10.296 40.609 10.1783 40.3481C10.0606 40.0872 10 39.8076 10 39.5251C10 39.2427 10.0606 38.9631 10.1783 38.7022C10.296 38.4413 10.4686 38.2042 10.6861 38.0045C10.9036 37.8048 11.1619 37.6464 11.4461 37.5383C11.7303 37.4302 12.0349 37.3746 12.3426 37.3746C12.6502 37.3746 12.9548 37.4302 13.239 37.5383C13.5232 37.6464 13.7815 37.8048 13.999 38.0045L20.156 43.6539Z" fill="url(#paint0_linear_2_17)"/>
<defs>
<linearGradient id="paint0_linear_2_17" x1="22.5" y1="4" x2="22.5" y2="51" gradientUnits="userSpaceOnUse">
<stop offset="0.375" stop-color="#FFB840"/>
<stop offset="0.58" stop-color="#113650"/>
</linearGradient>
</defs>
</svg>
