<svg width="46" height="46" viewBox="0 0 46 46" fill="none" xmlns="http://www.w3.org/2000/svg">
<path d="M35.9375 34.9791V15.8125H16.7708V14.6146C16.7708 12.6327 18.3827 11.0208 20.3646 11.0208H23.9583V3.83331H20.3646C17.5063 3.83686 14.7661 4.97388 12.745 6.99499C10.7239 9.0161 9.58687 11.7563 9.58332 14.6146V15.8125H4.79166V23H9.58332V34.9791H4.79166V42.1666H21.5625V34.9791H16.7708V23H28.8171V34.9791H23.9583V42.1666H40.7292V34.9791H35.9375Z" fill="url(#paint0_linear_5_26)"/>
<path d="M32.3438 11.0208C34.3285 11.0208 35.9375 9.41184 35.9375 7.42706C35.9375 5.44229 34.3285 3.83331 32.3438 3.83331C30.359 3.83331 28.75 5.44229 28.75 7.42706C28.75 9.41184 30.359 11.0208 32.3438 11.0208Z" fill="url(#paint1_linear_5_26)"/>
<defs>
<linearGradient id="paint0_linear_5_26" x1="22.7604" y1="3.83331" x2="22.7604" y2="42.1666" gradientUnits="userSpaceOnUse">
<stop stop-color="#113650"/>
<stop offset="1" stop-color="#FFB840"/>
</linearGradient>
<linearGradient id="paint1_linear_5_26" x1="32.3438" y1="3.83331" x2="32.3438" y2="11.0208" gradientUnits="userSpaceOnUse">
<stop stop-color="#113650"/>
<stop offset="1" stop-color="#FFB840"/>
</linearGradient>
</defs>
</svg>
