<svg width="58" height="58" viewBox="0 0 58 58" fill="none" xmlns="http://www.w3.org/2000/svg">
<path d="M29.1667 5C25.9931 5 22.8505 5.62509 19.9185 6.83958C16.9864 8.05407 14.3223 9.83417 12.0783 12.0783C7.54612 16.6104 5 22.7573 5 29.1667C5 39.8483 11.9358 48.9108 21.53 52.125C22.7383 52.3183 23.125 51.5692 23.125 50.9167V46.8325C16.4308 48.2825 15.005 43.5942 15.005 43.5942C13.8933 40.7908 12.3225 40.0417 12.3225 40.0417C10.1233 38.5433 12.4917 38.5917 12.4917 38.5917C14.9083 38.7608 16.1892 41.0808 16.1892 41.0808C18.2917 44.7542 21.8442 43.6667 23.2217 43.0867C23.4392 41.5158 24.0675 40.4525 24.7442 39.8483C19.3792 39.2442 13.7483 37.1658 13.7483 27.9583C13.7483 25.2758 14.6667 23.125 16.2375 21.4092C15.9958 20.805 15.15 18.2917 16.4792 15.0292C16.4792 15.0292 18.5092 14.3767 23.125 17.4942C25.0342 16.9625 27.1125 16.6967 29.1667 16.6967C31.2208 16.6967 33.2992 16.9625 35.2083 17.4942C39.8242 14.3767 41.8542 15.0292 41.8542 15.0292C43.1833 18.2917 42.3375 20.805 42.0958 21.4092C43.6667 23.125 44.585 25.2758 44.585 27.9583C44.585 37.19 38.93 39.22 33.5408 39.8242C34.4108 40.5733 35.2083 42.0475 35.2083 44.295V50.9167C35.2083 51.5692 35.595 52.3425 36.8275 52.125C46.4217 48.8867 53.3333 39.8483 53.3333 29.1667C53.3333 25.9931 52.7082 22.8505 51.4937 19.9185C50.2793 16.9864 48.4992 14.3223 46.2551 12.0783C44.011 9.83417 41.3469 8.05407 38.4148 6.83958C35.4828 5.62509 32.3403 5 29.1667 5Z" fill="url(#paint0_linear_5_32)"/>
<defs>
<linearGradient id="paint0_linear_5_32" x1="29.1667" y1="5" x2="29.1667" y2="52.1624" gradientUnits="userSpaceOnUse">
<stop stop-color="#113650"/>
<stop offset="1" stop-color="#FFB840"/>
</linearGradient>
</defs>
</svg>
