<svg xmlns="http://www.w3.org/2000/svg">


<symbol id="icon-call" width="33" height="36" viewBox="0 0 33 36" fill="none" xmlns="http://www.w3.org/2000/svg">
<path d="M30.8692 25.8448C30.5327 25.4565 29.3449 24.3086 27.1612 22.79C24.9614 21.258 23.3391 20.3028 22.8738 20.0801C22.8328 20.0604 22.7876 20.0531 22.7431 20.0592C22.6985 20.0652 22.6564 20.0843 22.6211 20.1143C21.8715 20.7476 20.6095 21.9109 20.5419 21.9737C20.1049 22.3794 20.1049 22.3794 19.7471 22.253C19.1181 22.0296 17.1639 20.9054 15.461 19.0565C13.7582 17.2075 12.667 15.0381 12.4607 14.3573C12.3428 13.9691 12.3428 13.9691 12.7185 13.4957C12.7765 13.4223 13.851 12.0552 14.4356 11.2438C14.4633 11.2056 14.4809 11.16 14.4864 11.1117C14.492 11.0635 14.4853 11.0145 14.4671 10.9701C14.2615 10.4653 13.3798 8.70851 11.9657 6.32541C10.5619 3.96047 9.50361 2.67361 9.14525 2.30912C9.11237 2.27551 9.07172 2.25212 9.0276 2.24143C8.98347 2.23074 8.9375 2.23314 8.89453 2.24838C7.64187 2.71474 6.43325 3.30979 5.28515 4.0254C4.17683 4.72338 3.12755 5.52599 2.14951 6.42387C2.11537 6.45531 2.08977 6.49623 2.07546 6.54223C2.06116 6.58824 2.05868 6.63759 2.0683 6.68501C2.20301 7.3651 2.84689 10.2041 4.84494 14.1366C6.88359 18.1501 8.2964 20.2065 11.2903 23.4386C14.2841 26.6708 16.2422 28.2935 19.9508 30.502C23.5808 32.6666 26.2028 33.3648 26.8293 33.5094C26.8731 33.5197 26.9188 33.517 26.9613 33.5015C27.0039 33.486 27.0417 33.4583 27.071 33.4214C27.8996 32.3619 28.6403 31.2252 29.2843 30.0244C29.9447 28.7806 30.494 27.4713 30.9246 26.1143C30.9384 26.0681 30.9405 26.0187 30.9308 25.9714C30.921 25.924 30.8998 25.8803 30.8692 25.8448Z" fill="#113650"/>
</symbol>

<symbol id="icon-download" title="Download Icon" width="46" height="60" viewBox="0 0 46 60" fill="none" xmlns="http://www.w3.org/2000/svg">
<path d="M5.68856 59.218C4.17986 59.218 2.73295 58.6186 1.66614 57.5518C0.599328 56.485 0 55.0381 0 53.5294V45.4029C9.63487e-09 44.7563 0.256855 44.1362 0.71406 43.679C1.17126 43.2218 1.79137 42.9649 2.43795 42.9649C3.08454 42.9649 3.70464 43.2218 4.16185 43.679C4.61905 44.1362 4.87591 44.7563 4.87591 45.4029V53.5294C4.87591 53.978 5.23997 54.3421 5.68856 54.3421H39.8199C40.0354 54.3421 40.2421 54.2564 40.3945 54.104C40.5469 53.9516 40.6326 53.7449 40.6326 53.5294V45.4029C40.6326 44.7563 40.8894 44.1362 41.3466 43.679C41.8038 43.2218 42.4239 42.9649 43.0705 42.9649C43.7171 42.9649 44.3372 43.2218 44.7944 43.679C45.2516 44.1362 45.5085 44.7563 45.5085 45.4029V53.5294C45.5085 55.0381 44.9091 56.485 43.8423 57.5518C42.7755 58.6186 41.3286 59.218 39.8199 59.218H5.68856Z" fill="#FFB840"/>
<ellipse cx="22.5" cy="18" rx="16.5" ry="18" fill="#FFB840"/>
<path d="M20.156 43.6539V27.3311C20.156 26.7604 19.7164 4.58293 20.156 4.17937C20.5956 3.77581 21.8783 4.17936 22.5 4.17936C23.1217 4.17936 24.4044 3.77581 24.844 4.17937C25.2836 4.58293 24.844 26.7604 24.844 27.3311V43.6539L31.001 38.0045C31.2185 37.8048 31.4768 37.6464 31.761 37.5383C32.0452 37.4302 32.3498 37.3746 32.6574 37.3746C32.9651 37.3746 33.2697 37.4302 33.5539 37.5383C33.8381 37.6464 34.0964 37.8048 34.3139 38.0045C34.5314 38.2042 34.704 38.4413 34.8217 38.7022C34.9394 38.9631 35 39.2427 35 39.5251C35 39.8076 34.9394 40.0872 34.8217 40.3481C34.704 40.609 34.5314 40.8461 34.3139 41.0458L24.1564 50.3707C23.7169 50.7736 23.1212 51 22.5 51C21.8788 51 21.2831 50.7736 20.8436 50.3707L10.6861 41.0458C10.4686 40.8461 10.296 40.609 10.1783 40.3481C10.0606 40.0872 10 39.8076 10 39.5251C10 39.2427 10.0606 38.9631 10.1783 38.7022C10.296 38.4413 10.4686 38.2042 10.6861 38.0045C10.9036 37.8048 11.1619 37.6464 11.4461 37.5383C11.7303 37.4302 12.0349 37.3746 12.3426 37.3746C12.6502 37.3746 12.9548 37.4302 13.239 37.5383C13.5232 37.6464 13.7815 37.8048 13.999 38.0045L20.156 43.6539Z" fill="url(#paint0_linear_2_17)"/>
<defs>
<linearGradient id="paint0_linear_2_17" x1="22.5" y1="4" x2="22.5" y2="51" gradientUnits="userSpaceOnUse">
<stop offset="0.375" stop-color="#FFB840"/>
<stop offset="0.58" stop-color="#113650"/>
</linearGradient>
</defs>
</symbol>





</svg>