<svg width="65" height="46" viewBox="0 0 65 46" fill="none" xmlns="http://www.w3.org/2000/svg">
<path d="M8.64682 45.7472C6.52786 44.5948 4.92936 43.6282 3.85129 42.8476C2.77323 42.0669 1.52788 40.9145 0.115239 39.3903L4.63196 33.9257V10.8402C4.63196 9.87367 4.55761 9.2417 4.40891 8.9443C4.26021 8.60973 3.86988 8.31233 3.23791 8.05211L0.394049 6.37925L0.617097 1.41644H18.5167L18.7955 7.10416L14.7249 8.2194V26.0632C14.7249 30.0037 14.4089 33.2379 13.7769 35.7658C13.145 38.2565 12.0111 40.7658 10.3754 43.2937L8.64682 45.7472Z" fill="#113650"/>
<path d="M33.2535 39.6691C29.1643 39.6691 25.0193 39.0372 20.8186 37.7732C21.0045 34.0929 21.3019 30.6729 21.7108 27.513L26.0045 26.6766L28.7926 31.4164C31.023 32.197 32.9933 32.5874 34.7033 32.5874C35.2981 32.5874 36.5621 32.4201 38.4952 32.0855C38.5695 31.342 38.6067 30.8402 38.6067 30.5799C38.6067 29.6878 38.458 29.0186 38.1606 28.5725C37.8632 28.0892 37.2126 27.5688 36.2089 27.0112C35.2052 26.4164 33.4022 25.5428 30.8 24.3904C27.603 22.829 25.2982 21.1562 23.8855 19.3718C22.4729 17.5502 21.7666 15.4127 21.7666 12.9592C21.7666 9.13018 23.0677 6.13762 25.6699 3.98149C28.2721 1.82536 31.8409 0.747293 36.3762 0.747293C38.5695 0.747293 40.7442 0.970342 42.9003 1.41644C45.0936 1.82536 47.0081 2.40157 48.6438 3.14506C48.5695 5.22684 48.4022 7.81048 48.142 10.896L47.9747 13.2937L43.9041 13.9071L39.6662 8.49821C38.3279 8.08929 36.655 7.88483 34.6476 7.88483C33.3836 7.88483 32.4357 7.99635 31.8037 8.2194C31.6178 8.96289 31.5249 9.5391 31.5249 9.94802C31.5249 10.7659 31.7294 11.4908 32.1383 12.1227C32.5472 12.7175 33.2721 13.3495 34.313 14.0186C35.3539 14.6506 36.8966 15.4499 38.9412 16.4164C41.9152 17.829 44.1643 19.0744 45.6884 20.1525C47.2126 21.2305 48.2721 22.3643 48.8669 23.5539C49.4988 24.7064 49.8148 26.119 49.8148 27.7918C49.8148 31.4721 48.3464 34.3718 45.4096 36.4907C42.4728 38.6097 38.4208 39.6691 33.2535 39.6691Z" fill="#FFB840"/>
<path d="M53.6358 32.4759L62.6693 30.0781L64.9555 38.3866L55.9778 40.7844L53.6358 32.4759Z" fill="url(#paint0_linear_6_201)"/>
<defs>
<linearGradient id="paint0_linear_6_201" x1="33.5" y1="-16" x2="33.5" y2="57" gradientUnits="userSpaceOnUse">
<stop stop-color="#113650"/>
<stop offset="1" stop-color="#999999"/>
</linearGradient>
</defs>
</svg>
