<svg width="232" height="40" viewBox="0 0 232 40" fill="none" xmlns="http://www.w3.org/2000/svg">
<path d="M20 28.7833L30.3 35L27.5667 23.2833L36.6667 15.4L24.6834 14.3833L20 3.33333L15.3167 14.3833L3.33337 15.4L12.4334 23.2833L9.70004 35L20 28.7833Z" fill="#FFB840"/>
<path d="M68 28.7833L78.3 35L75.5667 23.2833L84.6667 15.4L72.6834 14.3833L68 3.33333L63.3167 14.3833L51.3334 15.4L60.4334 23.2833L57.7 35L68 28.7833Z" fill="#FFB840"/>
<path d="M116 28.7833L126.3 35L123.567 23.2833L132.667 15.4L120.683 14.3833L116 3.33333L111.317 14.3833L99.3334 15.4L108.433 23.2833L105.7 35L116 28.7833Z" fill="#FFB840"/>
<path d="M164 28.7833L174.3 35L171.567 23.2833L180.667 15.4L168.683 14.3833L164 3.33333L159.317 14.3833L147.333 15.4L156.433 23.2833L153.7 35L164 28.7833Z" fill="#FFB840"/>
<path d="M212 28.7833L222.3 35L219.567 23.2833L228.667 15.4L216.683 14.3833L212 3.33333L207.317 14.3833L195.333 15.4L204.433 23.2833L201.7 35L212 28.7833Z" fill="#FFB840"/>
</svg>
