<svg width="51" height="50" viewBox="0 0 51 50" fill="none" xmlns="http://www.w3.org/2000/svg">
<path fill-rule="evenodd" clip-rule="evenodd" d="M38.7335 41.0128V41.0087L38.7705 40.9203L44.9351 9.84028V9.74162C44.9351 8.96667 44.6473 8.29039 44.0265 7.88545C43.4818 7.52984 42.8548 7.50517 42.415 7.53806C42.0055 7.57509 41.6015 7.65783 41.2104 7.78473C41.0436 7.83849 40.8791 7.89883 40.7171 7.96562L40.6903 7.97589L6.32147 21.4583L6.31119 21.4624C6.2067 21.4981 6.10443 21.5399 6.00491 21.5878C5.76048 21.6976 5.52597 21.8283 5.30397 21.9783C4.86202 22.2826 4.0213 22.9979 4.16314 24.1326C4.2803 25.074 4.9278 25.6701 5.36564 25.9805C5.62407 26.1616 5.90192 26.3133 6.19402 26.4327L6.2598 26.4615L6.28036 26.4677L6.29475 26.4738L12.3093 28.4986C12.2887 28.8747 12.3257 29.2591 12.4265 29.6394L15.4379 41.0662C15.6024 41.6891 15.9578 42.2448 16.4544 42.6553C16.9509 43.0658 17.5635 43.3104 18.2062 43.3549C18.8489 43.3993 19.4894 43.2413 20.0377 42.9031C20.586 42.5649 21.0146 42.0634 21.2633 41.4691L25.9664 36.4412L34.0427 42.6326L34.1578 42.6819C34.8916 43.0026 35.5761 43.1033 36.2031 43.019C36.83 42.9327 37.3275 42.6696 37.7016 42.3715C38.1343 42.0207 38.4791 41.5737 38.7088 41.0662L38.7252 41.0313L38.7314 41.019L38.7335 41.0128ZM15.407 28.8542C15.3737 28.7274 15.3816 28.5933 15.4297 28.4713C15.4777 28.3493 15.5634 28.2458 15.6742 28.1758L36.0674 15.2258C36.0674 15.2258 37.2678 14.4961 37.2247 15.2258C37.2247 15.2258 37.4385 15.3533 36.7951 15.9514C36.1866 16.5208 22.2602 29.9662 20.8501 31.327C20.7717 31.4031 20.7168 31.5002 20.6919 31.6066L18.4184 40.281L15.407 28.8542Z" fill="white"/>
</svg>
