<svg width="32" height="32" viewBox="0 0 32 32" fill="none" xmlns="http://www.w3.org/2000/svg">
<path d="M15.98 20.5439L20.3027 25.4586C21.9027 27.2786 22.704 28.1892 23.5427 27.9666C24.38 27.7452 24.668 26.5479 25.2427 24.1519L28.4293 10.8612C29.316 7.17056 29.7587 5.32656 28.7747 4.41589C27.7907 3.50522 26.0853 4.18256 22.6747 5.53589L6.85334 11.8199C4.12534 12.9039 2.76134 13.4452 2.67468 14.3759C2.66447 14.4707 2.66447 14.5664 2.67468 14.6612C2.75868 15.5932 4.12001 16.1386 6.84534 17.2306C8.07868 17.7252 8.69601 17.9732 9.13868 18.4466C9.18845 18.4999 9.23645 18.555 9.28268 18.6119C9.69068 19.1186 9.86401 19.7852 10.212 21.1132L10.864 23.6026C11.2013 24.8959 11.3707 25.5439 11.8147 25.6319C12.2587 25.7199 12.644 25.1839 13.416 24.1106L15.98 20.5439ZM15.98 20.5439L15.5573 20.1039C15.0747 19.5999 14.8333 19.3492 14.8333 19.0372C14.8333 18.7252 15.0733 18.4732 15.5573 17.9706L20.3213 13.0052" stroke="#FFB840" stroke-width="3" stroke-linecap="round" stroke-linejoin="round"/>
</svg>
