<svg width="56" height="56" viewBox="0 0 56 56" fill="none" xmlns="http://www.w3.org/2000/svg">
<g clip-path="url(#clip0_168_235)">
<path d="M42.8739 30.3856C40.3569 30.3856 37.9976 29.3189 35.853 27.5831L36.3737 25.1256L36.392 25.0297C36.8648 22.4191 38.3311 18.0408 42.8761 18.0408C44.5131 18.042 46.0826 18.6928 47.2401 19.8503C48.3976 21.0078 49.0484 22.5774 49.0497 24.2143C49.0466 25.8509 48.3949 27.4195 47.2372 28.5763C46.0795 29.7331 44.5104 30.3837 42.8739 30.3856ZM42.8739 11.7942C37.0749 11.7942 32.5732 15.5604 30.7461 21.7659C27.9597 17.5772 25.8401 12.5479 24.6091 8.30889H18.3602V24.5523C18.359 26.095 17.7458 27.5742 16.6552 28.6652C15.5646 29.7563 14.0857 30.37 12.543 30.3718C11.0011 30.3688 9.52337 29.7545 8.43374 28.6636C7.34411 27.5727 6.73154 26.0942 6.73033 24.5523V8.30889H0.481445V24.5523C0.481445 31.2078 5.89441 36.6641 12.543 36.6641C19.1961 36.6641 24.6091 31.2078 24.6091 24.5523V21.8344C25.8173 24.3628 27.3087 26.9254 29.1176 29.191L25.2966 47.1726H31.6848L34.4552 34.1312C36.883 35.682 39.674 36.6641 42.8739 36.6641C49.7257 36.6641 55.2963 31.0639 55.2963 24.2166C55.2963 17.3648 49.7257 11.7942 42.8739 11.7942Z" fill="white"/>
</g>
<defs>
<clipPath id="clip0_168_235">
<rect width="54.8148" height="54.8148" fill="white" transform="translate(0.481445 0.333336)"/>
</clipPath>
</defs>
</svg>
