<svg width="32" height="32" viewBox="0 0 32 32" fill="none" xmlns="http://www.w3.org/2000/svg">
<path d="M16.0533 2.66658C8.77333 2.66658 2.84 8.59991 2.84 15.8799C2.84 18.2132 3.45333 20.4799 4.6 22.4799L2.73333 29.3332L9.73333 27.4932C11.6667 28.5466 13.84 29.1066 16.0533 29.1066C23.3333 29.1066 29.2667 23.1732 29.2667 15.8932C29.2667 12.3599 27.8933 9.03991 25.4 6.54658C24.1774 5.31205 22.7214 4.3332 21.1167 3.66706C19.512 3.00092 17.7908 2.66082 16.0533 2.66658ZM16.0667 4.89324C19 4.89324 21.7467 6.03991 23.8267 8.11991C24.8472 9.1406 25.6563 10.3526 26.2077 11.6865C26.7591 13.0203 27.0419 14.4499 27.04 15.8932C27.04 21.9466 22.1067 26.8666 16.0533 26.8666C14.08 26.8666 12.1467 26.3466 10.4667 25.3332L10.0667 25.1066L5.90666 26.1999L7.01333 22.1466L6.74666 21.7199C5.64606 19.9711 5.06356 17.9462 5.06666 15.8799C5.08 9.82658 10 4.89324 16.0667 4.89324ZM11.3733 9.77324C11.16 9.77324 10.8 9.85324 10.4933 10.1866C10.2 10.5199 9.33333 11.3332 9.33333 12.9466C9.33333 14.5732 10.52 16.1332 10.6667 16.3599C10.8533 16.5866 13.0133 19.9199 16.3333 21.3332C17.12 21.6932 17.7333 21.8932 18.2133 22.0399C19 22.2932 19.72 22.2532 20.2933 22.1732C20.9333 22.0799 22.24 21.3732 22.52 20.5999C22.8 19.8266 22.8 19.1732 22.72 19.0266C22.6267 18.8932 22.4133 18.8132 22.08 18.6666C21.7467 18.4799 20.12 17.6799 19.8267 17.5732C19.52 17.4666 19.3333 17.4132 19.08 17.7332C18.8667 18.0666 18.2267 18.8132 18.04 19.0266C17.84 19.2532 17.6533 19.2799 17.3333 19.1199C16.9867 18.9466 15.92 18.5999 14.6667 17.4799C13.68 16.5999 13.0267 15.5199 12.8267 15.1866C12.6667 14.8666 12.8133 14.6666 12.9733 14.5199C13.12 14.3732 13.3333 14.1332 13.4667 13.9332C13.64 13.7466 13.6933 13.5999 13.8 13.3866C13.9067 13.1599 13.8533 12.9732 13.7733 12.8132C13.6933 12.6666 13.0267 11.0132 12.7467 10.3599C12.48 9.71991 12.2133 9.79991 12 9.78658C11.8133 9.78658 11.6 9.77324 11.3733 9.77324Z" fill="#FFB840"/>
</svg>
